# xmcd
# Track frame offsets:
# 150
# 18972
# 42547
# 60395
# 79502
# 92355
# 108560
#
# Disc length: 1659 seconds
# Revision: 0
# Processed by: cddbd v1.5.2PL0 Copyright (c) Steve Scherf et al.
# Submitted via: VisiTrax 2.11.2.271 - For more info visit www.synapsa.com
#
DISCID=48067907
DTITLE=Various Artist - Another Country Sampler
DYEAR=1900
DGENRE=Country
TTITLE0=Billy Gilman - One Voice
TTITLE1=Dixie Chicks - Cold Day in July
TTITLE2=Tim McGraw - Some Things Never Change
TTITLE3=Steve Earl - Transcedental Blue
TTITLE4=Hank III - You're The Reason
TTITLE5=Tammy Cochran - If You Can
TTITLE6=Patty Loveless - That's The Kind Of Mood I'm in
EXTD=
EXTT0=
EXTT1=
EXTT2=
EXTT3=
EXTT4=
EXTT5=
EXTT6=
PLAYORDER=
